<svg xmlns="http://www.w3.org/2000/svg" width="760" height="690" viewBox="0 0 760 690" role="img">
<title>RVT-2 七维评分</title>
<g font-family="Arial, PingFang SC, sans-serif" fill="#334155">
<text x="38" y="39" font-size="16" letter-spacing="3" fill="#64748b">EMBODIED WORLD · READING INDEX</text>
<text x="38" y="68" font-size="23">RVT-2</text>
<text x="720" y="59" font-size="28" text-anchor="end" fill="#0785a3">85.0 / 100</text>
<polygon points="380.0,290.0 415.2,306.9 423.9,345.0 399.5,375.5 360.5,375.5 336.1,345.0 344.8,306.9" fill="none" stroke="#b9c8d3" stroke-width="1"/>
<polygon points="380.0,245.0 450.4,278.9 467.7,355.0 419.0,416.1 341.0,416.1 292.3,355.0 309.6,278.9" fill="none" stroke="#b9c8d3" stroke-width="1"/>
<polygon points="380.0,200.0 485.5,250.8 511.6,365.0 438.6,456.6 321.4,456.6 248.4,365.0 274.5,250.8" fill="none" stroke="#b9c8d3" stroke-width="1"/>
<polygon points="380.0,155.0 520.7,222.8 555.5,375.1 458.1,497.2 301.9,497.2 204.5,375.1 239.3,222.8" fill="none" stroke="#b9c8d3" stroke-width="1"/>
<line x1="380" y1="335" x2="380.0" y2="155.0" stroke="#9aafbd" stroke-width="1"/>
<line x1="380" y1="335" x2="520.7" y2="222.8" stroke="#9aafbd" stroke-width="1"/>
<line x1="380" y1="335" x2="555.5" y2="375.1" stroke="#9aafbd" stroke-width="1"/>
<line x1="380" y1="335" x2="458.1" y2="497.2" stroke="#9aafbd" stroke-width="1"/>
<line x1="380" y1="335" x2="301.9" y2="497.2" stroke="#9aafbd" stroke-width="1"/>
<line x1="380" y1="335" x2="204.5" y2="375.1" stroke="#9aafbd" stroke-width="1"/>
<line x1="380" y1="335" x2="239.3" y2="222.8" stroke="#9aafbd" stroke-width="1"/>
<polygon points="380.0,164.0 501.0,238.5 539.7,371.4 418.0,413.8 343.8,410.1 215.0,372.7 251.9,232.9" fill="#0785a3" fill-opacity=".12" stroke="#0785a3" stroke-width="2.5" stroke-linejoin="round"/>
<text x="380.0" y="78.6" font-size="24" text-anchor="middle">公开与评审</text>
<text x="380.0" y="110.6" font-size="27" fill="#0785a3" text-anchor="middle">95</text>
<circle cx="380.0" cy="164.0" r="4" fill="#0785a3"/>
<text x="574.2" y="172.1" font-size="24" text-anchor="middle">创新性</text>
<text x="574.2" y="204.1" font-size="27" fill="#0785a3" text-anchor="middle">86</text>
<circle cx="501.0" cy="238.5" r="4" fill="#0785a3"/>
<text x="622.2" y="382.3" font-size="24" text-anchor="middle">实验与证据</text>
<text x="622.2" y="414.3" font-size="27" fill="#0785a3" text-anchor="middle">91</text>
<circle cx="539.7" cy="371.4" r="4" fill="#0785a3"/>
<text x="487.8" y="550.8" font-size="24" text-anchor="middle">学术影响</text>
<text x="487.8" y="582.8" font-size="27" fill="#0785a3" text-anchor="middle">48.6</text>
<circle cx="418.0" cy="413.8" r="4" fill="#0785a3"/>
<text x="272.2" y="550.8" font-size="24" text-anchor="middle">近期关注</text>
<text x="272.2" y="582.8" font-size="27" fill="#0785a3" text-anchor="middle">46.3</text>
<circle cx="343.8" cy="410.1" r="4" fill="#0785a3"/>
<text x="137.8" y="382.3" font-size="24" text-anchor="middle">复用价值</text>
<text x="137.8" y="414.3" font-size="27" fill="#0785a3" text-anchor="middle">94</text>
<circle cx="215.0" cy="372.7" r="4" fill="#0785a3"/>
<text x="185.8" y="172.1" font-size="24" text-anchor="middle">阅读价值</text>
<text x="185.8" y="204.1" font-size="27" fill="#0785a3" text-anchor="middle">91</text>
<circle cx="251.9" cy="232.9" r="4" fill="#0785a3"/>
<text x="380" y="646" font-size="19" text-anchor="middle" fill="#64748b">七轴满分 100 · 权重与评分依据见下表</text></g></svg>
