<svg xmlns="http://www.w3.org/2000/svg" width="760" height="690" viewBox="0 0 760 690" role="img">
<title>DreamWaQ 七维评分</title>
<g font-family="Arial, PingFang SC, sans-serif" fill="#e2edf4">
<text x="38" y="39" font-size="16" letter-spacing="3" fill="#a0b2c3">EMBODIED WORLD · READING INDEX</text>
<text x="38" y="68" font-size="23">DreamWaQ</text>
<text x="720" y="59" font-size="28" text-anchor="end" fill="#55d9e7">82.2 / 100</text>
<polygon points="380.0,290.0 415.2,306.9 423.9,345.0 399.5,375.5 360.5,375.5 336.1,345.0 344.8,306.9" fill="none" stroke="#344b5b" stroke-width="1"/>
<polygon points="380.0,245.0 450.4,278.9 467.7,355.0 419.0,416.1 341.0,416.1 292.3,355.0 309.6,278.9" fill="none" stroke="#344b5b" stroke-width="1"/>
<polygon points="380.0,200.0 485.5,250.8 511.6,365.0 438.6,456.6 321.4,456.6 248.4,365.0 274.5,250.8" fill="none" stroke="#344b5b" stroke-width="1"/>
<polygon points="380.0,155.0 520.7,222.8 555.5,375.1 458.1,497.2 301.9,497.2 204.5,375.1 239.3,222.8" fill="none" stroke="#344b5b" stroke-width="1"/>
<line x1="380" y1="335" x2="380.0" y2="155.0" stroke="#4b6678" stroke-width="1"/>
<line x1="380" y1="335" x2="520.7" y2="222.8" stroke="#4b6678" stroke-width="1"/>
<line x1="380" y1="335" x2="555.5" y2="375.1" stroke="#4b6678" stroke-width="1"/>
<line x1="380" y1="335" x2="458.1" y2="497.2" stroke="#4b6678" stroke-width="1"/>
<line x1="380" y1="335" x2="301.9" y2="497.2" stroke="#4b6678" stroke-width="1"/>
<line x1="380" y1="335" x2="204.5" y2="375.1" stroke="#4b6678" stroke-width="1"/>
<line x1="380" y1="335" x2="239.3" y2="222.8" stroke="#4b6678" stroke-width="1"/>
<polygon points="380.0,185.6 501.0,238.5 532.7,369.8 429.5,437.8 330.3,438.1 234.3,368.2 249.1,230.6" fill="#55d9e7" fill-opacity=".12" stroke="#55d9e7" stroke-width="2.5" stroke-linejoin="round"/>
<text x="380.0" y="78.6" font-size="24" text-anchor="middle">公开与评审</text>
<text x="380.0" y="110.6" font-size="27" fill="#55d9e7" text-anchor="middle">83</text>
<circle cx="380.0" cy="185.6" r="4" fill="#55d9e7"/>
<text x="574.2" y="172.1" font-size="24" text-anchor="middle">创新性</text>
<text x="574.2" y="204.1" font-size="27" fill="#55d9e7" text-anchor="middle">86</text>
<circle cx="501.0" cy="238.5" r="4" fill="#55d9e7"/>
<text x="622.2" y="382.3" font-size="24" text-anchor="middle">实验与证据</text>
<text x="622.2" y="414.3" font-size="27" fill="#55d9e7" text-anchor="middle">87</text>
<circle cx="532.7" cy="369.8" r="4" fill="#55d9e7"/>
<text x="487.8" y="550.8" font-size="24" text-anchor="middle">学术影响</text>
<text x="487.8" y="582.8" font-size="27" fill="#55d9e7" text-anchor="middle">63.4</text>
<circle cx="429.5" cy="437.8" r="4" fill="#55d9e7"/>
<text x="272.2" y="550.8" font-size="24" text-anchor="middle">近期关注</text>
<text x="272.2" y="582.8" font-size="27" fill="#55d9e7" text-anchor="middle">63.6</text>
<circle cx="330.3" cy="438.1" r="4" fill="#55d9e7"/>
<text x="137.8" y="382.3" font-size="24" text-anchor="middle">复用价值</text>
<text x="137.8" y="414.3" font-size="27" fill="#55d9e7" text-anchor="middle">83</text>
<circle cx="234.3" cy="368.2" r="4" fill="#55d9e7"/>
<text x="185.8" y="172.1" font-size="24" text-anchor="middle">阅读价值</text>
<text x="185.8" y="204.1" font-size="27" fill="#55d9e7" text-anchor="middle">93</text>
<circle cx="249.1" cy="230.6" r="4" fill="#55d9e7"/>
<text x="380" y="646" font-size="19" text-anchor="middle" fill="#a0b2c3">七轴满分 100 · 权重与评分依据见下表</text></g></svg>
